<?xml version="1.0" encoding="utf-8"?>
<!-- Generator: Adobe Illustrator 27.0.0, SVG Export Plug-In . SVG Version: 6.00 Build 0)  -->
<svg version="1.1" id="Layer_1" xmlns="http://www.w3.org/2000/svg" xmlns:xlink="http://www.w3.org/1999/xlink" x="0px" y="0px"
	 viewBox="0 0 1080 310.9" style="enable-background:new 0 0 1080 310.9;" xml:space="preserve">
<style type="text/css">
	.st0{fill:#F3C300;}
	.st1{fill:#231F20;}
	.st2{clip-path:url(#SVGID_00000098207174329157101280000010076122627632766116_);fill:#231F20;}
	.st3{clip-path:url(#SVGID_00000098207174329157101280000010076122627632766116_);fill:#F3C300;}
</style>
<g>
	<rect x="9.6" y="9.3" class="st0" width="48.2" height="249.2"/>
	<rect x="511.5" y="9.3" class="st0" width="18.7" height="249.2"/>
	<path class="st0" d="M915,196.7H541.7v-64.1H915V196.7z M543.8,194.4H913v-59.6H543.8V194.4z"/>
	<path class="st0" d="M713.5,258.5H541.7v-64.1h171.8V258.5z M543.8,256.2h167.7v-59.6H543.8V256.2z"/>
	<polygon class="st1" points="152.4,258.5 152.4,9.3 309.6,9.3 309.6,53.1 200.9,53.1 200.9,96.3 309.6,96.3 309.6,140.1 
		200.9,140.1 200.9,258.5 	"/>
	<polygon class="st1" points="500.8,258.5 500.8,9.3 343.7,9.3 343.7,53.1 452.4,53.1 452.4,96.3 343.7,96.3 343.7,140.1 
		452.4,140.1 452.4,258.5 	"/>
	<rect x="70.3" y="9.3" class="st1" width="48.2" height="249.2"/>
	<rect x="511.5" y="274.6" class="st1" width="18.7" height="32.1"/>
	<rect x="511.5" y="274.6" class="st1" width="18.7" height="32.1"/>
	<path class="st0" d="M880.1,134.9H541.7V70.7h338.4V134.9z M543.8,132.6h334.3V73H543.8V132.6z"/>
	<rect x="553.8" y="84.6" class="st1" width="5.6" height="36.9"/>
	<polygon class="st1" points="829.9,84.6 829.9,116.6 850.2,116.6 850.2,121.4 824.4,121.4 824.4,84.6 	"/>
	<g>
		<defs>
			<rect id="SVGID_1_" y="-382.2" width="1080" height="1080"/>
		</defs>
		<clipPath id="SVGID_00000104692301820776434420000009229888912257892791_">
			<use xlink:href="#SVGID_1_"  style="overflow:visible;"/>
		</clipPath>
		<path style="clip-path:url(#SVGID_00000104692301820776434420000009229888912257892791_);fill:#231F20;" d="M595.7,86.6
			c2.6,1.9,4,4.9,4.4,8.9h-5.6c-0.5-2.4-1.4-4.1-2.9-5.2c-1.4-1.1-3.5-1.6-6.3-1.6c-2.4,0-4.3,0.4-5.6,1.1c-1.6,0.8-2.4,2.2-2.4,4
			c0,1.7,0.9,2.9,2.7,3.9c0.8,0.5,2.9,1.2,6.4,2.3c5,1.5,8.2,2.7,9.7,3.6c3.1,1.9,4.7,4.5,4.7,7.9c0,3.3-1.3,5.9-3.9,7.8
			c-2.6,1.9-6.2,2.8-10.8,2.8c-4.5,0-8-0.9-10.5-2.7c-3-2.2-4.7-5.6-5-10.2h5.6c0.4,2.9,1.4,5,3.1,6.2c1.5,1.1,3.8,1.7,6.9,1.7
			c2.8,0,5-0.5,6.7-1.4c1.7-0.9,2.5-2.2,2.5-3.9c0-2.1-1.2-3.7-3.5-4.9c-0.8-0.4-3.3-1.2-7.3-2.5c-4.5-1.4-7.3-2.4-8.5-3
			c-2.8-1.7-4.2-4.2-4.2-7.4c0-3.3,1.3-5.8,4.1-7.6c2.6-1.8,5.8-2.6,9.8-2.6C589.9,83.9,593.3,84.7,595.7,86.6"/>
		<path style="clip-path:url(#SVGID_00000104692301820776434420000009229888912257892791_);fill:#231F20;" d="M788.3,84.6v22.9
			c0,3.3,0.7,5.7,2.3,7.3c1.5,1.6,4,2.4,7.3,2.4c3.3,0,5.7-0.8,7.3-2.4c1.5-1.6,2.3-4,2.3-7.3V84.6h5.6v22.8c0,4.8-1.3,8.5-4,11
			c-2.6,2.5-6.3,3.8-11.2,3.8c-4.9,0-8.6-1.2-11.2-3.7c-2.7-2.6-4-6.2-4-11V84.6H788.3z"/>
		<path style="clip-path:url(#SVGID_00000104692301820776434420000009229888912257892791_);fill:#231F20;" d="M769.5,105.1
			c-1.2-1.5-3.1-2.5-5.5-2.9c1.9-0.7,3.3-1.7,4.3-3c1-1.4,1.5-3.2,1.5-5.3c0-2.8-1-5.1-2.9-6.7c-2.1-1.8-4.9-2.6-8.5-2.6h-16.8v4.6
			h5.6h9.8c2.5,0,4.3,0.4,5.5,1.3c1.1,0.8,1.7,2.2,1.7,4c0,2-0.6,3.4-1.7,4.3c-1.1,0.9-3,1.3-5.6,1.3h-6.6v0h-8.7v21.2h16.8
			c3.9,0,7-0.7,9.1-2.2c2.5-1.8,3.8-4.4,3.8-8.2C771.4,108.6,770.8,106.6,769.5,105.1 M763.2,115.6c-1.3,0.7-3.2,1.1-5.6,1.1h-10.4
			v-12h10.6c2.7,0,4.7,0.5,6,1.4c1.3,1,2,2.6,2,4.7C765.7,113.1,764.9,114.7,763.2,115.6"/>
		
			<rect x="724.2" y="84.6" style="clip-path:url(#SVGID_00000104692301820776434420000009229888912257892791_);fill:#231F20;" width="5.6" height="5.6"/>
		<polygon style="clip-path:url(#SVGID_00000104692301820776434420000009229888912257892791_);fill:#231F20;" points="705.1,84.6 
			699.5,84.6 699.5,121.4 705.1,121.4 705.1,93.7 705.3,93.7 724.3,121.4 730.3,121.4 		"/>
		<polygon style="clip-path:url(#SVGID_00000104692301820776434420000009229888912257892791_);fill:#231F20;" points="674.1,84.6 
			668.5,84.6 682.3,121.4 688.3,121.4 		"/>
		<polygon style="clip-path:url(#SVGID_00000104692301820776434420000009229888912257892791_);fill:#231F20;" points="669.2,102.3 
			666.5,102.3 666.5,102.3 660.9,102.3 653.5,121.4 659.5,121.4 664.8,107.1 671,107.1 		"/>
		<polygon style="clip-path:url(#SVGID_00000104692301820776434420000009229888912257892791_);fill:#231F20;" points="642.2,84.6 
			642.2,89.4 630,89.4 630,121.4 624.4,121.4 624.4,89.4 612,89.4 612,84.6 		"/>
		<path style="clip-path:url(#SVGID_00000104692301820776434420000009229888912257892791_);fill:#231F20;" d="M755,306.5h-3.3v-16.6
			h3.3V306.5z M754.7,289h-2.9v-2.6h2.9V289z"/>
		<path style="clip-path:url(#SVGID_00000104692301820776434420000009229888912257892791_);fill:#231F20;" d="M770.8,293.1l-2.2,1.1
			c-0.6-1.3-2-2-3.6-2c-2,0-2.8,0.8-2.8,1.9c0,3.1,8.6,2.2,8.6,7.8c0,3.1-2.4,4.9-6,4.9c-2.8,0-5.4-1.6-6.2-3.9l2.4-0.9
			c0.6,1.5,2.2,2.3,3.8,2.3c2,0,3-0.7,3-2.1c0-3.4-8.8-2.3-8.8-7.9c0-2.6,2.2-4.6,5.7-4.6C767.7,289.7,769.8,291,770.8,293.1"/>
		<polygon style="clip-path:url(#SVGID_00000104692301820776434420000009229888912257892791_);fill:#231F20;" points="785.5,289.9 
			785.5,292.6 780.9,292.6 780.9,306.5 777.5,306.5 777.5,292.6 772.9,292.6 772.9,289.9 		"/>
		<path style="clip-path:url(#SVGID_00000104692301820776434420000009229888912257892791_);fill:#231F20;" d="M790.3,306.5H787
			l6.3-16.6h3.6l6.3,16.6h-3.4l-1.3-3.7h-6.9L790.3,306.5z M792.4,300.4h5.2l-2.6-7.8h0L792.4,300.4z"/>
		<polygon style="clip-path:url(#SVGID_00000104692301820776434420000009229888912257892791_);fill:#231F20;" points="808.6,289.9 
			816.1,300.7 816.2,300.7 816.2,289.9 819.1,289.9 819.1,306.5 816.7,306.5 809.1,295.5 809,295.5 809,306.5 806.1,306.5 
			806.1,289.9 		"/>
		<path style="clip-path:url(#SVGID_00000104692301820776434420000009229888912257892791_);fill:#231F20;" d="M833.3,297.8
			L833.3,297.8c2.3,0.6,3.3,2,3.3,4c0,2.9-1.7,4.8-5.9,4.8h-6.8v-16.6h6.1c4,0,5.7,1.9,5.7,4.3C835.7,295.9,835,297.2,833.3,297.8
			 M827.1,296.8h3c1.9,0,2.6-0.8,2.6-2.2c0-1.4-0.7-2.1-2.6-2.1h-3V296.8z M827.1,304h3.4c1.9,0,2.8-0.7,2.8-2.5
			c0-1.7-0.8-2.3-2.8-2.3h-3.4V304z"/>
		<path style="clip-path:url(#SVGID_00000104692301820776434420000009229888912257892791_);fill:#231F20;" d="M853.7,289.9v10.6
			c0,3.8-2.5,6.2-6.8,6.2c-4.3,0-6.8-2.4-6.8-6.1v-10.8h3.3v10.8c0,2.4,1.5,3.3,3.5,3.3c2.2,0,3.5-1.1,3.5-3.3v-10.8H853.7z"/>
		<polygon style="clip-path:url(#SVGID_00000104692301820776434420000009229888912257892791_);fill:#231F20;" points="861.3,289.9 
			861.3,303.8 868.5,303.8 868.5,306.5 858.1,306.5 858.1,289.9 		"/>
		<path style="clip-path:url(#SVGID_00000104692301820776434420000009229888912257892791_);fill:#231F20;" d="M755,306.5h-3.3v-16.6
			h3.3V306.5z M754.7,289h-2.9v-2.6h2.9V289z"/>
		<path style="clip-path:url(#SVGID_00000104692301820776434420000009229888912257892791_);fill:#231F20;" d="M770.8,293.1l-2.2,1.1
			c-0.6-1.3-2-2-3.6-2c-2,0-2.8,0.8-2.8,1.9c0,3.1,8.6,2.2,8.6,7.8c0,3.1-2.4,4.9-6,4.9c-2.8,0-5.4-1.6-6.2-3.9l2.4-0.9
			c0.6,1.5,2.2,2.3,3.8,2.3c2,0,3-0.7,3-2.1c0-3.4-8.8-2.3-8.8-7.9c0-2.6,2.2-4.6,5.7-4.6C767.7,289.7,769.8,291,770.8,293.1"/>
		<polygon style="clip-path:url(#SVGID_00000104692301820776434420000009229888912257892791_);fill:#231F20;" points="785.5,289.9 
			785.5,292.6 780.9,292.6 780.9,306.5 777.5,306.5 777.5,292.6 772.9,292.6 772.9,289.9 		"/>
		<path style="clip-path:url(#SVGID_00000104692301820776434420000009229888912257892791_);fill:#231F20;" d="M790.3,306.5H787
			l6.3-16.6h3.6l6.3,16.6h-3.4l-1.3-3.7h-6.9L790.3,306.5z M792.4,300.4h5.2l-2.6-7.8h0L792.4,300.4z"/>
		<polygon style="clip-path:url(#SVGID_00000104692301820776434420000009229888912257892791_);fill:#231F20;" points="808.6,289.9 
			816.1,300.7 816.2,300.7 816.2,289.9 819.1,289.9 819.1,306.5 816.7,306.5 809.1,295.5 809,295.5 809,306.5 806.1,306.5 
			806.1,289.9 		"/>
		<path style="clip-path:url(#SVGID_00000104692301820776434420000009229888912257892791_);fill:#231F20;" d="M833.3,297.8
			L833.3,297.8c2.3,0.6,3.3,2,3.3,4c0,2.9-1.7,4.8-5.9,4.8h-6.8v-16.6h6.1c4,0,5.7,1.9,5.7,4.3C835.7,295.9,835,297.2,833.3,297.8
			 M827.1,296.8h3c1.9,0,2.6-0.8,2.6-2.2c0-1.4-0.7-2.1-2.6-2.1h-3V296.8z M827.1,304h3.4c1.9,0,2.8-0.7,2.8-2.5
			c0-1.7-0.8-2.3-2.8-2.3h-3.4V304z"/>
		<path style="clip-path:url(#SVGID_00000104692301820776434420000009229888912257892791_);fill:#231F20;" d="M853.7,289.9v10.6
			c0,3.8-2.5,6.2-6.8,6.2c-4.3,0-6.8-2.4-6.8-6.1v-10.8h3.3v10.8c0,2.4,1.5,3.3,3.5,3.3c2.2,0,3.5-1.1,3.5-3.3v-10.8H853.7z"/>
		<polygon style="clip-path:url(#SVGID_00000104692301820776434420000009229888912257892791_);fill:#231F20;" points="861.3,289.9 
			861.3,303.8 868.5,303.8 868.5,306.5 858.1,306.5 858.1,289.9 		"/>
		<polygon style="clip-path:url(#SVGID_00000104692301820776434420000009229888912257892791_);fill:#231F20;" points="896.6,289.9 
			896.6,306.5 893.6,306.5 893.6,295.4 893.6,295.4 888.7,303.7 887.3,303.7 882.4,295.4 882.4,295.4 882.4,306.5 879.3,306.5 
			879.3,289.9 882.4,289.9 888,299.8 888,299.8 893.5,289.9 		"/>
		<path style="clip-path:url(#SVGID_00000104692301820776434420000009229888912257892791_);fill:#231F20;" d="M914.3,296v4.4
			c0,3.8-2.5,6.3-6.8,6.3c-4.4,0-6.8-2.5-6.8-6.3V296c0-3.8,2.5-6.3,6.8-6.3C911.9,289.7,914.3,292.2,914.3,296 M911,296
			c0-2.5-1.1-3.7-3.5-3.7c-2.4,0-3.5,1.2-3.5,3.7v4.4c0,2.6,1.1,3.8,3.5,3.8c2.4,0,3.5-1.2,3.5-3.8V296z"/>
		<path style="clip-path:url(#SVGID_00000104692301820776434420000009229888912257892791_);fill:#231F20;" d="M927.8,297.8
			L927.8,297.8c2.3,0.6,3.3,2,3.3,4c0,2.9-1.7,4.8-5.9,4.8h-6.8v-16.6h6.1c4,0,5.7,1.9,5.7,4.3C930.3,295.9,929.6,297.2,927.8,297.8
			 M921.7,296.8h3c1.9,0,2.6-0.8,2.6-2.2c0-1.4-0.7-2.1-2.6-2.1h-3V296.8z M921.7,304h3.4c1.9,0,2.8-0.7,2.8-2.5
			c0-1.7-0.8-2.3-2.8-2.3h-3.4V304z"/>
		<path style="clip-path:url(#SVGID_00000104692301820776434420000009229888912257892791_);fill:#231F20;" d="M938.6,306.5h-3.3
			v-16.6h3.3V306.5z M938.4,289h-2.9v-2.6h2.9V289z"/>
		<polygon style="clip-path:url(#SVGID_00000104692301820776434420000009229888912257892791_);fill:#231F20;" points="946.9,289.9 
			946.9,303.8 954.1,303.8 954.1,306.5 943.7,306.5 943.7,289.9 		"/>
		<polygon style="clip-path:url(#SVGID_00000104692301820776434420000009229888912257892791_);fill:#231F20;" points="965.1,301.1 
			965.1,306.5 961.8,306.5 961.8,301.1 955.8,289.9 959.5,289.9 963.4,298.4 963.5,298.4 967.5,289.9 971.2,289.9 		"/>
		<path style="clip-path:url(#SVGID_00000104692301820776434420000009229888912257892791_);fill:#231F20;" d="M975.8,306.5h-3.4
			l6.3-16.6h3.6l6.3,16.6h-3.4l-1.3-3.7H977L975.8,306.5z M977.8,300.4h5.2l-2.6-7.8h0L977.8,300.4z"/>
		<polygon style="clip-path:url(#SVGID_00000104692301820776434420000009229888912257892791_);fill:#231F20;" points="1009.6,289.9 
			1009.6,292.6 1001.6,292.6 1001.6,297.1 1008.4,297.1 1008.4,299.6 1001.6,299.6 1001.6,306.5 998.3,306.5 998.3,289.9 		"/>
		<path style="clip-path:url(#SVGID_00000104692301820776434420000009229888912257892791_);fill:#231F20;" d="M1026.7,289.9v10.6
			c0,3.8-2.5,6.2-6.8,6.2c-4.3,0-6.8-2.4-6.8-6.1v-10.8h3.3v10.8c0,2.4,1.5,3.3,3.5,3.3c2.2,0,3.5-1.1,3.5-3.3v-10.8H1026.7z"/>
		<path style="clip-path:url(#SVGID_00000104692301820776434420000009229888912257892791_);fill:#231F20;" d="M1032.7,306.5h-3.4
			l6.3-16.6h3.6l6.3,16.6h-3.4l-1.3-3.7h-6.9L1032.7,306.5z M1034.7,300.4h5.2l-2.6-7.8h0L1034.7,300.4z"/>
		<path style="clip-path:url(#SVGID_00000104692301820776434420000009229888912257892791_);fill:#231F20;" d="M1054.2,299.9h-2.5
			v6.6h-3.3v-16.6h6.2c4.1,0,6,2,6,4.8c0,2.2-1.2,4-3.4,4.6l4.5,7.2h-3.7L1054.2,299.9z M1051.8,297.5h2.9c2.2,0,2.7-1.1,2.7-2.6
			c0-1.6-0.6-2.5-2.7-2.5h-2.9V297.5z"/>
		
			<rect x="1065.3" y="289.9" style="clip-path:url(#SVGID_00000104692301820776434420000009229888912257892791_);fill:#231F20;" width="3.3" height="16.6"/>
		<polygon style="clip-path:url(#SVGID_00000104692301820776434420000009229888912257892791_);fill:#231F20;" points="896.6,289.9 
			896.6,306.5 893.6,306.5 893.6,295.4 893.6,295.4 888.7,303.7 887.3,303.7 882.4,295.4 882.4,295.4 882.4,306.5 879.3,306.5 
			879.3,289.9 882.4,289.9 888,299.8 888,299.8 893.5,289.9 		"/>
		<path style="clip-path:url(#SVGID_00000104692301820776434420000009229888912257892791_);fill:#231F20;" d="M914.3,296v4.4
			c0,3.8-2.5,6.3-6.8,6.3c-4.4,0-6.8-2.5-6.8-6.3V296c0-3.8,2.5-6.3,6.8-6.3C911.9,289.7,914.3,292.2,914.3,296 M911,296
			c0-2.5-1.1-3.7-3.5-3.7c-2.4,0-3.5,1.2-3.5,3.7v4.4c0,2.6,1.1,3.8,3.5,3.8c2.4,0,3.5-1.2,3.5-3.8V296z"/>
		<path style="clip-path:url(#SVGID_00000104692301820776434420000009229888912257892791_);fill:#231F20;" d="M927.8,297.8
			L927.8,297.8c2.3,0.6,3.3,2,3.3,4c0,2.9-1.7,4.8-5.9,4.8h-6.8v-16.6h6.1c4,0,5.7,1.9,5.7,4.3C930.3,295.9,929.6,297.2,927.8,297.8
			 M921.7,296.8h3c1.9,0,2.6-0.8,2.6-2.2c0-1.4-0.7-2.1-2.6-2.1h-3V296.8z M921.7,304h3.4c1.9,0,2.8-0.7,2.8-2.5
			c0-1.7-0.8-2.3-2.8-2.3h-3.4V304z"/>
		<path style="clip-path:url(#SVGID_00000104692301820776434420000009229888912257892791_);fill:#231F20;" d="M938.6,306.5h-3.3
			v-16.6h3.3V306.5z M938.4,289h-2.9v-2.6h2.9V289z"/>
		<polygon style="clip-path:url(#SVGID_00000104692301820776434420000009229888912257892791_);fill:#231F20;" points="946.9,289.9 
			946.9,303.8 954.1,303.8 954.1,306.5 943.7,306.5 943.7,289.9 		"/>
		<polygon style="clip-path:url(#SVGID_00000104692301820776434420000009229888912257892791_);fill:#231F20;" points="965.1,301.1 
			965.1,306.5 961.8,306.5 961.8,301.1 955.8,289.9 959.5,289.9 963.4,298.4 963.5,298.4 967.5,289.9 971.2,289.9 		"/>
		<path style="clip-path:url(#SVGID_00000104692301820776434420000009229888912257892791_);fill:#231F20;" d="M975.8,306.5h-3.4
			l6.3-16.6h3.6l6.3,16.6h-3.4l-1.3-3.7H977L975.8,306.5z M977.8,300.4h5.2l-2.6-7.8h0L977.8,300.4z"/>
		<polygon style="clip-path:url(#SVGID_00000104692301820776434420000009229888912257892791_);fill:#231F20;" points="1009.6,289.9 
			1009.6,292.6 1001.6,292.6 1001.6,297.1 1008.4,297.1 1008.4,299.6 1001.6,299.6 1001.6,306.5 998.3,306.5 998.3,289.9 		"/>
		<path style="clip-path:url(#SVGID_00000104692301820776434420000009229888912257892791_);fill:#231F20;" d="M1026.7,289.9v10.6
			c0,3.8-2.5,6.2-6.8,6.2c-4.3,0-6.8-2.4-6.8-6.1v-10.8h3.3v10.8c0,2.4,1.5,3.3,3.5,3.3c2.2,0,3.5-1.1,3.5-3.3v-10.8H1026.7z"/>
		<path style="clip-path:url(#SVGID_00000104692301820776434420000009229888912257892791_);fill:#231F20;" d="M1032.7,306.5h-3.4
			l6.3-16.6h3.6l6.3,16.6h-3.4l-1.3-3.7h-6.9L1032.7,306.5z M1034.7,300.4h5.2l-2.6-7.8h0L1034.7,300.4z"/>
		<path style="clip-path:url(#SVGID_00000104692301820776434420000009229888912257892791_);fill:#231F20;" d="M1054.2,299.9h-2.5
			v6.6h-3.3v-16.6h6.2c4.1,0,6,2,6,4.8c0,2.2-1.2,4-3.4,4.6l4.5,7.2h-3.7L1054.2,299.9z M1051.8,297.5h2.9c2.2,0,2.7-1.1,2.7-2.6
			c0-1.6-0.6-2.5-2.7-2.5h-2.9V297.5z"/>
		
			<rect x="1065.3" y="289.9" style="clip-path:url(#SVGID_00000104692301820776434420000009229888912257892791_);fill:#231F20;" width="3.3" height="16.6"/>
		<path style="clip-path:url(#SVGID_00000104692301820776434420000009229888912257892791_);fill:#231F20;" d="M614.4,293.1l-2.2,1.1
			c-0.6-1.3-2-2-3.6-2c-2,0-2.8,0.8-2.8,1.9c0,3.1,8.6,2.2,8.6,7.8c0,3.1-2.4,4.9-6,4.9c-2.8,0-5.4-1.6-6.2-3.9l2.4-0.9
			c0.6,1.5,2.2,2.3,3.8,2.3c2,0,3-0.7,3-2.1c0-3.4-8.8-2.3-8.8-7.9c0-2.6,2.2-4.6,5.7-4.6C611.3,289.7,613.4,291,614.4,293.1"/>
		<path style="clip-path:url(#SVGID_00000104692301820776434420000009229888912257892791_);fill:#231F20;" d="M733.5,293.1l-2.2,1.1
			c-0.6-1.3-2-2-3.6-2c-2,0-2.8,0.8-2.8,1.9c0,3.1,8.6,2.2,8.6,7.8c0,3.1-2.4,4.9-6,4.9c-2.8,0-5.4-1.6-6.2-3.9l2.4-0.9
			c0.6,1.5,2.2,2.3,3.8,2.3c2,0,3-0.7,3-2.1c0-3.4-8.8-2.3-8.8-7.9c0-2.6,2.2-4.6,5.7-4.6C730.4,289.7,732.5,291,733.5,293.1"/>
		<path style="clip-path:url(#SVGID_00000104692301820776434420000009229888912257892791_);fill:#231F20;" d="M567.2,289.9v10.6
			c0,3.8-2.5,6.2-6.8,6.2c-4.3,0-6.8-2.4-6.8-6.1v-10.8h3.3v10.8c0,2.4,1.5,3.3,3.5,3.3c2.2,0,3.5-1.1,3.5-3.3v-10.8H567.2z"/>
		<polygon style="clip-path:url(#SVGID_00000104692301820776434420000009229888912257892791_);fill:#231F20;" points="574.3,289.9 
			574.3,303.8 581.5,303.8 581.5,306.5 571.1,306.5 571.1,289.9 		"/>
		<polygon style="clip-path:url(#SVGID_00000104692301820776434420000009229888912257892791_);fill:#231F20;" points="621.6,289.9 
			621.6,303.8 628.8,303.8 628.8,306.5 618.4,306.5 618.4,289.9 		"/>
		<path style="clip-path:url(#SVGID_00000104692301820776434420000009229888912257892791_);fill:#231F20;" d="M598.4,289.9v10.6
			c0,3.8-2.5,6.2-6.8,6.2c-4.3,0-6.8-2.4-6.8-6.1v-10.8h3.3v10.8c0,2.4,1.5,3.3,3.5,3.3c2.2,0,3.5-1.1,3.5-3.3v-10.8H598.4z"/>
		<path style="clip-path:url(#SVGID_00000104692301820776434420000009229888912257892791_);fill:#231F20;" d="M634.6,306.5h-3.4
			l6.3-16.6h3.6l6.3,16.6H644l-1.3-3.7h-6.9L634.6,306.5z M636.7,300.4h5.2l-2.6-7.8h0L636.7,300.4z"/>
		<path style="clip-path:url(#SVGID_00000104692301820776434420000009229888912257892791_);fill:#231F20;" d="M657,299.9h-2.5v6.6
			h-3.3v-16.6h6.2c4.1,0,6,2,6,4.8c0,2.2-1.2,4-3.4,4.6l4.5,7.2h-3.7L657,299.9z M654.6,297.5h2.9c2.2,0,2.7-1.1,2.7-2.6
			c0-1.6-0.6-2.5-2.7-2.5h-2.9V297.5z"/>
		<path style="clip-path:url(#SVGID_00000104692301820776434420000009229888912257892791_);fill:#231F20;" d="M670.4,306.5H667
			l6.3-16.6h3.6l6.3,16.6h-3.4l-1.3-3.7h-6.9L670.4,306.5z M672.4,300.4h5.2l-2.6-7.8h0L672.4,300.4z"/>
		<path style="clip-path:url(#SVGID_00000104692301820776434420000009229888912257892791_);fill:#231F20;" d="M706.2,306.5h-3.4
			l6.3-16.6h3.6l6.3,16.6h-3.4l-1.3-3.7h-6.9L706.2,306.5z M708.2,300.4h5.2l-2.6-7.8h0L708.2,300.4z"/>
		<path style="clip-path:url(#SVGID_00000104692301820776434420000009229888912257892791_);fill:#231F20;" d="M692.8,299.9h-2.5v6.6
			H687v-16.6h6.2c4.1,0,6,2,6,4.8c0,2.2-1.2,4-3.4,4.6l4.5,7.2h-3.7L692.8,299.9z M690.3,297.5h2.9c2.2,0,2.7-1.1,2.7-2.6
			c0-1.6-0.6-2.5-2.7-2.5h-2.9V297.5z"/>
		
			<rect x="737.5" y="289.9" style="clip-path:url(#SVGID_00000104692301820776434420000009229888912257892791_);fill:#231F20;" width="3.3" height="16.6"/>
		<path style="clip-path:url(#SVGID_00000104692301820776434420000009229888912257892791_);fill:#231F20;" d="M614.4,293.1l-2.2,1.1
			c-0.6-1.3-2-2-3.6-2c-2,0-2.8,0.8-2.8,1.9c0,3.1,8.6,2.2,8.6,7.8c0,3.1-2.4,4.9-6,4.9c-2.8,0-5.4-1.6-6.2-3.9l2.4-0.9
			c0.6,1.5,2.2,2.3,3.8,2.3c2,0,3-0.7,3-2.1c0-3.4-8.8-2.3-8.8-7.9c0-2.6,2.2-4.6,5.7-4.6C611.3,289.7,613.4,291,614.4,293.1"/>
		<path style="clip-path:url(#SVGID_00000104692301820776434420000009229888912257892791_);fill:#231F20;" d="M733.5,293.1l-2.2,1.1
			c-0.6-1.3-2-2-3.6-2c-2,0-2.8,0.8-2.8,1.9c0,3.1,8.6,2.2,8.6,7.8c0,3.1-2.4,4.9-6,4.9c-2.8,0-5.4-1.6-6.2-3.9l2.4-0.9
			c0.6,1.5,2.2,2.3,3.8,2.3c2,0,3-0.7,3-2.1c0-3.4-8.8-2.3-8.8-7.9c0-2.6,2.2-4.6,5.7-4.6C730.4,289.7,732.5,291,733.5,293.1"/>
		<path style="clip-path:url(#SVGID_00000104692301820776434420000009229888912257892791_);fill:#231F20;" d="M567.2,289.9v10.6
			c0,3.8-2.5,6.2-6.8,6.2c-4.3,0-6.8-2.4-6.8-6.1v-10.8h3.3v10.8c0,2.4,1.5,3.3,3.5,3.3c2.2,0,3.5-1.1,3.5-3.3v-10.8H567.2z"/>
		<polygon style="clip-path:url(#SVGID_00000104692301820776434420000009229888912257892791_);fill:#231F20;" points="574.3,289.9 
			574.3,303.8 581.5,303.8 581.5,306.5 571.1,306.5 571.1,289.9 		"/>
		<polygon style="clip-path:url(#SVGID_00000104692301820776434420000009229888912257892791_);fill:#231F20;" points="621.6,289.9 
			621.6,303.8 628.8,303.8 628.8,306.5 618.4,306.5 618.4,289.9 		"/>
		<path style="clip-path:url(#SVGID_00000104692301820776434420000009229888912257892791_);fill:#231F20;" d="M598.4,289.9v10.6
			c0,3.8-2.5,6.2-6.8,6.2c-4.3,0-6.8-2.4-6.8-6.1v-10.8h3.3v10.8c0,2.4,1.5,3.3,3.5,3.3c2.2,0,3.5-1.1,3.5-3.3v-10.8H598.4z"/>
		<path style="clip-path:url(#SVGID_00000104692301820776434420000009229888912257892791_);fill:#231F20;" d="M634.6,306.5h-3.4
			l6.3-16.6h3.6l6.3,16.6H644l-1.3-3.7h-6.9L634.6,306.5z M636.7,300.4h5.2l-2.6-7.8h0L636.7,300.4z"/>
		<path style="clip-path:url(#SVGID_00000104692301820776434420000009229888912257892791_);fill:#231F20;" d="M657,299.9h-2.5v6.6
			h-3.3v-16.6h6.2c4.1,0,6,2,6,4.8c0,2.2-1.2,4-3.4,4.6l4.5,7.2h-3.7L657,299.9z M654.6,297.5h2.9c2.2,0,2.7-1.1,2.7-2.6
			c0-1.6-0.6-2.5-2.7-2.5h-2.9V297.5z"/>
		<path style="clip-path:url(#SVGID_00000104692301820776434420000009229888912257892791_);fill:#231F20;" d="M670.4,306.5H667
			l6.3-16.6h3.6l6.3,16.6h-3.4l-1.3-3.7h-6.9L670.4,306.5z M672.4,300.4h5.2l-2.6-7.8h0L672.4,300.4z"/>
		<path style="clip-path:url(#SVGID_00000104692301820776434420000009229888912257892791_);fill:#231F20;" d="M706.2,306.5h-3.4
			l6.3-16.6h3.6l6.3,16.6h-3.4l-1.3-3.7h-6.9L706.2,306.5z M708.2,300.4h5.2l-2.6-7.8h0L708.2,300.4z"/>
		<path style="clip-path:url(#SVGID_00000104692301820776434420000009229888912257892791_);fill:#231F20;" d="M692.8,299.9h-2.5v6.6
			H687v-16.6h6.2c4.1,0,6,2,6,4.8c0,2.2-1.2,4-3.4,4.6l4.5,7.2h-3.7L692.8,299.9z M690.3,297.5h2.9c2.2,0,2.7-1.1,2.7-2.6
			c0-1.6-0.6-2.5-2.7-2.5h-2.9V297.5z"/>
		
			<rect x="737.5" y="289.9" style="clip-path:url(#SVGID_00000104692301820776434420000009229888912257892791_);fill:#231F20;" width="3.3" height="16.6"/>
		<polygon style="clip-path:url(#SVGID_00000104692301820776434420000009229888912257892791_);fill:#231F20;" points="884.2,145.8 
			884.2,150.6 863.3,150.6 863.3,161.3 882.9,161.3 882.9,166.1 863.3,166.1 863.3,177.9 885.1,177.9 885.1,182.7 857.7,182.7 
			857.7,145.8 		"/>
		<path style="clip-path:url(#SVGID_00000104692301820776434420000009229888912257892791_);fill:#231F20;" d="M844.2,177.2l-0.6-5
			c-0.4-3.6-2.2-5.8-5.5-6.5v-0.1c2-0.5,3.6-1.6,4.8-3.3c1-1.5,1.5-4.1,1.5-6c0-3.5-1.1-6.1-3.4-8c-2.2-1.7-5.2-2.5-8.9-2.5h-16.3
			v4.8h5.6v0h9.9c2.6,0,4.4,0.5,5.7,1.4c1.1,0.9,1.8,2.4,1.8,4.5c0,2-0.6,4.3-1.8,5.4c-1.2,1-3.1,1.6-5.6,1.6h-10v-0.1h-5.6v19.2
			h5.6v-14.3h10c2.1,0,3.7,0.4,4.9,1.3c1.1,0.9,1.8,2.4,2,4.4l0.5,3.7c0.2,2.1,0.7,3.7,1.6,4.9h6.1
			C845.2,181.3,844.5,179.5,844.2,177.2"/>
		<polygon style="clip-path:url(#SVGID_00000104692301820776434420000009229888912257892791_);fill:#231F20;" points="578.9,145.8 
			578.9,150.6 559.4,150.6 559.4,161.3 577.8,161.3 577.8,166.1 559.4,166.1 559.4,182.7 553.8,182.7 553.8,145.8 		"/>
		
			<rect x="715.8" y="145.8" style="clip-path:url(#SVGID_00000104692301820776434420000009229888912257892791_);fill:#231F20;" width="5.6" height="36.9"/>
		<polygon style="clip-path:url(#SVGID_00000104692301820776434420000009229888912257892791_);fill:#231F20;" points="762.9,145.8 
			762.9,150.6 750.6,150.6 750.6,182.7 745,182.7 745,150.6 732.7,150.6 732.7,145.8 		"/>
		<path style="clip-path:url(#SVGID_00000104692301820776434420000009229888912257892791_);fill:#231F20;" d="M595.8,145.8v22.9
			c0,3.3,0.7,5.7,2.3,7.3c1.5,1.6,4,2.4,7.3,2.4c3.3,0,5.7-0.8,7.3-2.4c1.5-1.6,2.3-4,2.3-7.3v-22.9h5.6v22.8c0,4.8-1.3,8.5-4,11
			c-2.6,2.5-6.3,3.8-11.2,3.8c-4.9,0-8.6-1.2-11.2-3.7c-2.7-2.6-4-6.2-4-11v-22.8H595.8z"/>
		<path style="clip-path:url(#SVGID_00000104692301820776434420000009229888912257892791_);fill:#231F20;" d="M779.8,145.8v22.9
			c0,3.3,0.7,5.7,2.3,7.3c1.5,1.6,4,2.4,7.3,2.4c3.3,0,5.7-0.8,7.3-2.4c1.5-1.6,2.3-4,2.3-7.3v-22.9h5.6v22.8c0,4.8-1.3,8.5-4,11
			c-2.6,2.5-6.3,3.8-11.2,3.8c-4.9,0-8.6-1.2-11.2-3.7c-2.7-2.6-4-6.2-4-11v-22.8H779.8z"/>
		<path style="clip-path:url(#SVGID_00000104692301820776434420000009229888912257892791_);fill:#231F20;" d="M660.2,177.2l-0.6-5
			c-0.4-3.6-2.2-5.8-5.5-6.5v-0.1c2-0.5,3.6-1.6,4.8-3.3c1-1.5,1.5-4.1,1.5-6c0-3.5-1.1-6.1-3.4-8c-2.2-1.7-5.2-2.5-8.9-2.5h-16.3
			v4.8h5.6v0h9.9c2.6,0,4.4,0.5,5.7,1.4c1.1,0.9,1.8,2.4,1.8,4.5c0,2-0.6,4.3-1.8,5.4c-1.2,1-3.1,1.6-5.6,1.6h-10v-0.1h-5.6v19.2
			h5.6v-14.3h10c2.1,0,3.7,0.4,4.9,1.3c1.1,0.9,1.8,2.4,2,4.4l0.5,3.7c0.2,2.1,0.7,3.7,1.6,4.9h6.1
			C661.2,181.3,660.4,179.5,660.2,177.2"/>
		
			<rect x="698.4" y="145.8" style="clip-path:url(#SVGID_00000104692301820776434420000009229888912257892791_);fill:#231F20;" width="5.6" height="5.6"/>
		<polygon style="clip-path:url(#SVGID_00000104692301820776434420000009229888912257892791_);fill:#231F20;" points="679.4,145.8 
			673.7,145.8 673.7,182.7 679.3,182.7 679.3,154.9 679.5,154.9 698.6,182.7 704.5,182.7 		"/>
		<path style="clip-path:url(#SVGID_00000104692301820776434420000009229888912257892791_);fill:#231F20;" d="M898,22.4
			c-10.2,0-18.4,8.2-18.4,18.4c0,10.2,8.2,18.4,18.4,18.4c10.2,0,18.4-8.2,18.4-18.4C916.4,30.7,908.1,22.4,898,22.4 M898,53.6
			c-7,0-12.8-5.7-12.8-12.8s5.7-12.8,12.8-12.8c7,0,12.8,5.7,12.8,12.8S905,53.6,898,53.6"/>
		<polygon style="clip-path:url(#SVGID_00000104692301820776434420000009229888912257892791_);fill:#231F20;" points="1020.1,22.4 
			1020.1,54.5 1040.4,54.5 1040.4,59.3 1014.5,59.3 1014.5,22.4 		"/>
		<polygon style="clip-path:url(#SVGID_00000104692301820776434420000009229888912257892791_);fill:#231F20;" points="797,22.4 
			791.4,22.4 805.2,59.3 811.2,59.3 		"/>
		<polygon style="clip-path:url(#SVGID_00000104692301820776434420000009229888912257892791_);fill:#231F20;" points="792.1,40.2 
			789.4,40.2 789.4,40.2 783.8,40.2 776.4,59.3 782.4,59.3 787.7,44.9 794,44.9 		"/>
		
			<rect x="553.8" y="22.4" style="clip-path:url(#SVGID_00000104692301820776434420000009229888912257892791_);fill:#231F20;" width="5.6" height="36.9"/>
		
			<rect x="864" y="22.4" style="clip-path:url(#SVGID_00000104692301820776434420000009229888912257892791_);fill:#231F20;" width="5.6" height="36.9"/>
		
			<rect x="595.4" y="22.4" style="clip-path:url(#SVGID_00000104692301820776434420000009229888912257892791_);fill:#231F20;" width="5.6" height="5.6"/>
		<polygon style="clip-path:url(#SVGID_00000104692301820776434420000009229888912257892791_);fill:#231F20;" points="576.4,22.4 
			570.7,22.4 570.7,59.3 576.3,59.3 576.3,31.6 576.5,31.6 595.6,59.3 601.5,59.3 		"/>
		<polygon style="clip-path:url(#SVGID_00000104692301820776434420000009229888912257892791_);fill:#231F20;" points="642.5,22.4 
			642.5,27.2 630.2,27.2 630.2,59.3 624.7,59.3 624.7,27.2 612.3,27.2 612.3,22.4 		"/>
		<polygon style="clip-path:url(#SVGID_00000104692301820776434420000009229888912257892791_);fill:#231F20;" points="852.7,22.4 
			852.7,27.2 840.4,27.2 840.4,59.3 834.9,59.3 834.9,27.2 822.5,27.2 822.5,22.4 		"/>
		<polygon style="clip-path:url(#SVGID_00000104692301820776434420000009229888912257892791_);fill:#231F20;" points="680.3,22.4 
			680.3,27.2 659.4,27.2 659.4,38 679.1,38 679.1,42.8 659.4,42.8 659.4,54.5 681.2,54.5 681.2,59.3 653.8,59.3 653.8,22.4 		"/>
		<path style="clip-path:url(#SVGID_00000104692301820776434420000009229888912257892791_);fill:#231F20;" d="M720.9,53.9l-0.6-5
			c-0.4-3.6-2.2-5.8-5.5-6.5v-0.1c2-0.5,3.6-1.6,4.8-3.3c1-1.5,1.5-4.1,1.5-6c0-3.5-1.1-6.1-3.4-8c-2.2-1.7-5.2-2.5-8.9-2.5h-16.3
			v4.8h5.6v0h9.9c2.6,0,4.4,0.5,5.7,1.4c1.1,0.9,1.8,2.4,1.8,4.5c0,2-0.6,4.3-1.8,5.4c-1.2,1-3.1,1.6-5.6,1.6h-10v-0.1h-5.6v19.2
			h5.6V45h10c2.1,0,3.7,0.4,4.9,1.3c1.1,0.9,1.8,2.4,2,4.4l0.5,3.7c0.2,2.1,0.7,3.7,1.6,4.9h6.1C721.8,58,721.1,56.1,720.9,53.9"/>
		
			<rect x="759" y="22.4" style="clip-path:url(#SVGID_00000104692301820776434420000009229888912257892791_);fill:#231F20;" width="5.6" height="5.6"/>
		<polygon style="clip-path:url(#SVGID_00000104692301820776434420000009229888912257892791_);fill:#231F20;" points="740,22.4 
			734.3,22.4 734.3,59.3 739.9,59.3 739.9,31.6 740.1,31.6 759.2,59.3 765.1,59.3 		"/>
		<polygon style="clip-path:url(#SVGID_00000104692301820776434420000009229888912257892791_);fill:#231F20;" points="989.1,22.4 
			983.5,22.4 997.2,59.3 1003.3,59.3 		"/>
		<polygon style="clip-path:url(#SVGID_00000104692301820776434420000009229888912257892791_);fill:#231F20;" points="984.1,40.2 
			981.5,40.2 981.5,40.2 975.8,40.2 968.5,59.3 974.5,59.3 979.7,44.9 986,44.9 		"/>
		
			<rect x="951.1" y="22.4" style="clip-path:url(#SVGID_00000104692301820776434420000009229888912257892791_);fill:#231F20;" width="5.6" height="5.6"/>
		<polygon style="clip-path:url(#SVGID_00000104692301820776434420000009229888912257892791_);fill:#231F20;" points="932,22.4 
			926.3,22.4 926.3,59.3 932,59.3 932,31.6 932.2,31.6 951.2,59.3 957.2,59.3 		"/>
		<polygon style="clip-path:url(#SVGID_00000104692301820776434420000009229888912257892791_);fill:#231F20;" points="578.9,208 
			578.9,212.8 559.4,212.8 559.4,223.5 577.8,223.5 577.8,228.3 559.4,228.3 559.4,244.8 553.8,244.8 553.8,208 		"/>
		
			<rect x="636.2" y="208" style="clip-path:url(#SVGID_00000104692301820776434420000009229888912257892791_);fill:#231F20;" width="5.6" height="36.9"/>
		<path style="clip-path:url(#SVGID_00000104692301820776434420000009229888912257892791_);fill:#231F20;" d="M681.5,239.4l-0.6-5
			c-0.4-3.6-2.2-5.8-5.5-6.5v-0.1c2-0.5,3.6-1.6,4.8-3.3c1-1.5,1.5-4.1,1.5-6c0-3.5-1.1-6.1-3.4-8c-2.2-1.7-5.2-2.5-8.9-2.5h-16.3
			v4.8h5.6v0h9.9c2.6,0,4.4,0.5,5.7,1.4c1.1,0.9,1.8,2.4,1.8,4.5c0,2-0.6,4.3-1.8,5.4c-1.2,1-3.1,1.6-5.6,1.6h-10v-0.1h-5.6v19.2
			h5.6v-14.3h10c2.1,0,3.7,0.4,4.9,1.3c1.1,0.9,1.8,2.4,2,4.4l0.5,3.7c0.2,2.1,0.7,3.7,1.6,4.9h6.1
			C682.4,243.5,681.7,241.7,681.5,239.4"/>
		<polygon style="clip-path:url(#SVGID_00000104692301820776434420000009229888912257892791_);fill:#231F20;" points="610.7,208 
			605.1,208 618.9,244.8 624.9,244.8 		"/>
		<polygon style="clip-path:url(#SVGID_00000104692301820776434420000009229888912257892791_);fill:#231F20;" points="605.8,225.7 
			603.1,225.7 603.1,225.7 597.5,225.7 590.1,244.8 596.1,244.8 601.4,230.5 607.7,230.5 		"/>
		<path style="clip-path:url(#SVGID_00000104692301820776434420000009229888912257892791_);fill:#F3C300;" d="M541.7,72.9h528.7V8.8
			H541.7V72.9z M1068.3,70.7H543.8V11.1h524.5V70.7z"/>
	</g>
</g>
</svg>
